<?xml version="1.0" standalone="no"?>
<!DOCTYPE svg PUBLIC "-//W3C//DTD SVG 20010904//EN"
 "http://www.w3.org/TR/2001/REC-SVG-20010904/DTD/svg10.dtd">
<svg version="1.0" xmlns="http://www.w3.org/2000/svg"
 width="100.000000pt" height="100.000000pt" viewBox="0 0 100.000000 100.000000"
 preserveAspectRatio="xMidYMid meet">
<metadata>
Created by potrace 1.11, written by Peter Selinger 2001-2013
</metadata>
<g transform="translate(0.000000,100.000000) scale(0.100000,-0.100000)"
fill="#000000" stroke="none">
<path d="M140 880 c0 -11 5 -20 10 -20 6 0 10 -9 10 -20 0 -11 5 -20 10 -20 6
0 10 -9 10 -20 0 -11 5 -20 10 -20 6 0 10 -9 10 -20 0 -11 5 -20 10 -20 6 0
10 -13 10 -30 0 -16 5 -30 10 -30 6 0 10 -9 10 -20 0 -11 5 -20 10 -20 6 0 10
-9 10 -20 0 -11 5 -20 10 -20 6 0 10 -9 10 -20 0 -11 5 -20 10 -20 6 0 10 -13
10 -30 0 -16 5 -30 10 -30 6 0 10 -9 10 -20 0 -11 5 -20 10 -20 6 0 10 -18 10
-40 0 -22 -4 -40 -10 -40 -6 0 -10 -27 -10 -60 0 -33 -4 -60 -10 -60 -6 0 -10
-27 -10 -60 0 -33 -4 -60 -10 -60 -5 0 -10 -4 -10 -10 0 -5 23 -10 50 -10 49
0 50 1 50 30 0 17 5 30 10 30 6 0 10 27 10 60 0 33 4 60 10 60 6 0 10 27 10
60 0 33 4 60 10 60 6 0 10 9 10 20 0 13 7 20 20 20 13 0 20 -7 20 -20 0 -11 5
-20 10 -20 6 0 10 -9 10 -20 0 -11 5 -20 10 -20 6 0 10 -13 10 -30 0 -16 -4
-30 -10 -30 -6 0 -10 -27 -10 -60 0 -33 -4 -60 -10 -60 -6 0 -10 -27 -10 -60
0 -33 -4 -60 -10 -60 -5 0 -10 -9 -10 -20 0 -17 7 -20 50 -20 l50 0 0 40 c0
22 5 40 10 40 6 0 10 27 10 60 0 33 4 60 10 60 6 0 10 26 10 58 0 46 4 60 20
72 11 8 20 21 20 28 0 7 18 31 40 52 22 21 40 44 40 50 0 6 18 29 40 50 22 21
40 44 40 50 0 7 14 25 30 40 17 15 30 33 30 40 0 6 18 29 40 50 22 21 40 46
40 54 0 9 5 16 10 16 6 0 10 5 10 10 0 6 -20 10 -45 10 -39 0 -51 -5 -80 -35
-19 -19 -35 -39 -35 -46 0 -6 -14 -24 -30 -39 -17 -15 -30 -33 -30 -40 0 -7
-14 -25 -30 -40 -17 -15 -30 -33 -30 -40 0 -7 -14 -25 -30 -40 -17 -15 -30
-33 -30 -40 0 -16 -26 -40 -44 -40 -9 0 -16 8 -16 20 0 11 -4 20 -10 20 -5 0
-10 18 -10 40 0 22 5 40 10 40 6 0 10 7 10 16 0 8 18 33 40 54 22 21 40 44 40
50 0 7 14 25 30 40 17 15 30 33 30 40 0 6 18 29 40 50 54 52 53 70 -5 70 -35
0 -52 -6 -70 -25 -14 -13 -25 -29 -25 -36 0 -6 -14 -24 -30 -39 -16 -15 -30
-33 -30 -40 0 -7 -13 -25 -30 -40 -16 -15 -30 -35 -30 -44 0 -9 -8 -16 -20
-16 -13 0 -20 7 -20 20 0 11 -4 20 -10 20 -5 0 -10 9 -10 20 0 11 -4 20 -10
20 -5 0 -10 9 -10 20 0 11 -4 20 -10 20 -5 0 -10 9 -10 20 0 17 -7 20 -50 20
-43 0 -50 -3 -50 -20 0 -11 5 -20 10 -20 6 0 10 -13 10 -30 0 -16 5 -30 10
-30 6 0 10 -9 10 -20 0 -11 5 -20 10 -20 6 0 10 -9 10 -20 0 -11 5 -20 10 -20
6 0 10 -9 10 -20 0 -11 5 -20 10 -20 6 0 10 -13 10 -30 0 -16 -3 -30 -6 -30
-11 0 -34 29 -34 44 0 9 -4 16 -10 16 -5 0 -10 9 -10 20 0 11 -4 20 -10 20 -5
0 -10 14 -10 30 0 17 -4 30 -10 30 -5 0 -10 9 -10 20 0 11 -4 20 -10 20 -5 0
-10 9 -10 20 0 11 -4 20 -10 20 -5 0 -10 14 -10 30 0 17 -4 30 -10 30 -5 0
-10 7 -10 16 0 28 -27 44 -74 44 -39 0 -46 -3 -46 -20z"/>
</g>
</svg>
